<?xml version="1.0" encoding="utf-8"?>
<svg viewBox="26.885921478271484 334.51519775390625 339.79998779296875 64.70004272460938" width="339.79998779296875" height="64.70004272460938" xmlns="http://www.w3.org/2000/svg"><linearGradient id="SVGID_71_" gradientUnits="userSpaceOnUse" x1="116.2444" y1="336.0606" x2="164.4812" y2="345.5187">
			<stop offset="0" style="stop-color:#281809"/>
			<stop offset="2.459394e-04" style="stop-color:#2E1B0B"/>
			<stop offset="1.532047e-03" style="stop-color:#492B13"/>
			<stop offset="3.010038e-03" style="stop-color:#5F3719"/>
			<stop offset="4.736487e-03" style="stop-color:#70411E"/>
			<stop offset="6.871804e-03" style="stop-color:#7B4821"/>
			<stop offset="9.866627e-03" style="stop-color:#824C23"/>
			<stop offset="1.818180e-02" style="stop-color:#844D24"/>
			<stop offset="7.272730e-02" style="stop-color:#8E5B22"/>
			<stop offset="8.231267e-02" style="stop-color:#9A682B"/>
			<stop offset="9.997012e-02" style="stop-color:#BA8A43"/>
			<stop offset="0.1212" style="stop-color:#E8BA65"/>
			<stop offset="0.1394" style="stop-color:#F8E889"/>
			<stop offset="0.2303" style="stop-color:#B2813C"/>
			<stop offset="0.3333" style="stop-color:#E6B964"/>
			<stop offset="0.6424" style="stop-color:#F7E68A"/>
			<stop offset="0.7455" style="stop-color:#B2813C"/>
			<stop offset="0.7939" style="stop-color:#8E5B22"/>
			<stop offset="0.8727" style="stop-color:#844D24"/>
			<stop offset="1" style="stop-color:#281809"/>
		</linearGradient><linearGradient id="SVGID_72_" gradientUnits="userSpaceOnUse" x1="350.832" y1="335.1052" x2="300.3879" y2="346.1395">
			<stop offset="0" style="stop-color:#281809"/>
			<stop offset="2.459394e-04" style="stop-color:#2E1B0B"/>
			<stop offset="1.532047e-03" style="stop-color:#492B13"/>
			<stop offset="3.010038e-03" style="stop-color:#5F3719"/>
			<stop offset="4.736487e-03" style="stop-color:#70411E"/>
			<stop offset="6.871804e-03" style="stop-color:#7B4821"/>
			<stop offset="9.866627e-03" style="stop-color:#824C23"/>
			<stop offset="1.818180e-02" style="stop-color:#844D24"/>
			<stop offset="7.272730e-02" style="stop-color:#8E5B22"/>
			<stop offset="8.231267e-02" style="stop-color:#9A682B"/>
			<stop offset="9.997012e-02" style="stop-color:#BA8A43"/>
			<stop offset="0.1212" style="stop-color:#E8BA65"/>
			<stop offset="0.1394" style="stop-color:#F8E889"/>
			<stop offset="0.2303" style="stop-color:#B2813C"/>
			<stop offset="0.3333" style="stop-color:#E6B964"/>
			<stop offset="0.6424" style="stop-color:#F7E68A"/>
			<stop offset="0.7455" style="stop-color:#B2813C"/>
			<stop offset="0.7939" style="stop-color:#8E5B22"/>
			<stop offset="0.8727" style="stop-color:#844D24"/>
			<stop offset="1" style="stop-color:#281809"/>
		</linearGradient><linearGradient id="SVGID_73_" gradientUnits="userSpaceOnUse" x1="353.2444" y1="346.3581" x2="302.8482" y2="357.3819">
				<stop offset="1.212120e-02" style="stop-color:#281809"/>
				<stop offset="0.2606" style="stop-color:#8E5B22"/>
				<stop offset="0.2882" style="stop-color:#9A682B"/>
				<stop offset="0.3389" style="stop-color:#BA8A43"/>
				<stop offset="0.4" style="stop-color:#E8BA65"/>
				<stop offset="0.6061" style="stop-color:#844D24"/>
				<stop offset="1" style="stop-color:#281809"/>
			</linearGradient><linearGradient id="SVGID_74_" gradientUnits="userSpaceOnUse" x1="161.9188" y1="344.9791" x2="115.1276" y2="355.2143">
				<stop offset="1.212120e-02" style="stop-color:#281809"/>
				<stop offset="0.2606" style="stop-color:#8E5B22"/>
				<stop offset="0.2882" style="stop-color:#9A682B"/>
				<stop offset="0.3389" style="stop-color:#BA8A43"/>
				<stop offset="0.4" style="stop-color:#E8BA65"/>
				<stop offset="0.6061" style="stop-color:#844D24"/>
				<stop offset="1" style="stop-color:#281809"/>
			</linearGradient><linearGradient id="SVGID_75_" gradientUnits="userSpaceOnUse" x1="138.423" y1="341.8534" x2="165.922" y2="346.6363">
			<stop offset="0" style="stop-color:#2E181A"/>
			<stop offset="0.2423" style="stop-color:#5F3623"/>
			<stop offset="0.3758" style="stop-color:#7C4728"/>
			<stop offset="0.4224" style="stop-color:#764327"/>
			<stop offset="0.4848" style="stop-color:#653924"/>
			<stop offset="0.5559" style="stop-color:#49281F"/>
			<stop offset="0.6121" style="stop-color:#2E181A"/>
			<stop offset="1" style="stop-color:#281809"/>
		</linearGradient><linearGradient id="SVGID_76_" gradientUnits="userSpaceOnUse" x1="123.9863" y1="338.3148" x2="104.1241" y2="333.9004">
			<stop offset="0" style="stop-color:#2E181A"/>
			<stop offset="0.2423" style="stop-color:#5F3623"/>
			<stop offset="0.3758" style="stop-color:#7C4728"/>
			<stop offset="0.4224" style="stop-color:#764327"/>
			<stop offset="0.4848" style="stop-color:#653924"/>
			<stop offset="0.5559" style="stop-color:#49281F"/>
			<stop offset="0.6121" style="stop-color:#2E181A"/>
			<stop offset="0.8364" style="stop-color:#8E5B22"/>
			<stop offset="0.8669" style="stop-color:#81531F"/>
			<stop offset="0.9232" style="stop-color:#5F3C17"/>
			<stop offset="0.9985" style="stop-color:#291909"/>
			<stop offset="1" style="stop-color:#281809"/>
		</linearGradient><linearGradient id="SVGID_77_" gradientUnits="userSpaceOnUse" x1="126.1889" y1="326.348" x2="64.0978" y2="311.2188">
			<stop offset="0" style="stop-color:#281809"/>
			<stop offset="4.098989e-04" style="stop-color:#2E1B0B"/>
			<stop offset="2.553412e-03" style="stop-color:#492B13"/>
			<stop offset="5.016730e-03" style="stop-color:#5F3719"/>
			<stop offset="7.894145e-03" style="stop-color:#70411E"/>
			<stop offset="1.145301e-02" style="stop-color:#7B4821"/>
			<stop offset="1.644438e-02" style="stop-color:#824C23"/>
			<stop offset="3.030300e-02" style="stop-color:#844D24"/>
			<stop offset="7.878790e-02" style="stop-color:#F7E68A"/>
			<stop offset="9.090910e-02" style="stop-color:#F8E889"/>
			<stop offset="0.2545" style="stop-color:#B2813C"/>
			<stop offset="0.2661" style="stop-color:#B5843E"/>
			<stop offset="0.405" style="stop-color:#D0A153"/>
			<stop offset="0.5251" style="stop-color:#E0B35F"/>
			<stop offset="0.6121" style="stop-color:#E6B964"/>
			<stop offset="0.6532" style="stop-color:#DDB05E"/>
			<stop offset="0.7215" style="stop-color:#C6964F"/>
			<stop offset="0.8081" style="stop-color:#A16D37"/>
			<stop offset="0.8667" style="stop-color:#844D24"/>
			<stop offset="1" style="stop-color:#281809"/>
		</linearGradient><linearGradient id="SVGID_78_" gradientUnits="userSpaceOnUse" x1="328.3908" y1="340.462" x2="300.0952" y2="346.838">
			<stop offset="0" style="stop-color:#2E181A"/>
			<stop offset="0.2423" style="stop-color:#5F3623"/>
			<stop offset="0.3758" style="stop-color:#7C4728"/>
			<stop offset="0.4224" style="stop-color:#764327"/>
			<stop offset="0.4848" style="stop-color:#653924"/>
			<stop offset="0.5559" style="stop-color:#49281F"/>
			<stop offset="0.6121" style="stop-color:#2E181A"/>
			<stop offset="1" style="stop-color:#281809"/>
		</linearGradient><linearGradient id="SVGID_79_" gradientUnits="userSpaceOnUse" x1="341.2279" y1="338.1297" x2="356.0461" y2="335.2924">
			<stop offset="0" style="stop-color:#2E181A"/>
			<stop offset="0.2423" style="stop-color:#5F3623"/>
			<stop offset="0.3758" style="stop-color:#7C4728"/>
			<stop offset="0.4224" style="stop-color:#764327"/>
			<stop offset="0.4848" style="stop-color:#653924"/>
			<stop offset="0.5559" style="stop-color:#49281F"/>
			<stop offset="0.6121" style="stop-color:#2E181A"/>
			<stop offset="0.8364" style="stop-color:#8E5B22"/>
			<stop offset="0.8669" style="stop-color:#81531F"/>
			<stop offset="0.9232" style="stop-color:#5F3C17"/>
			<stop offset="0.9985" style="stop-color:#291909"/>
			<stop offset="1" style="stop-color:#281809"/>
		</linearGradient><linearGradient id="SVGID_80_" gradientUnits="userSpaceOnUse" x1="338.4313" y1="325.339" x2="403.0625" y2="312.7284">
			<stop offset="0" style="stop-color:#281809"/>
			<stop offset="4.098989e-04" style="stop-color:#2E1B0B"/>
			<stop offset="2.553412e-03" style="stop-color:#492B13"/>
			<stop offset="5.016730e-03" style="stop-color:#5F3719"/>
			<stop offset="7.894145e-03" style="stop-color:#70411E"/>
			<stop offset="1.145301e-02" style="stop-color:#7B4821"/>
			<stop offset="1.644438e-02" style="stop-color:#824C23"/>
			<stop offset="3.030300e-02" style="stop-color:#844D24"/>
			<stop offset="7.878790e-02" style="stop-color:#F7E68A"/>
			<stop offset="9.090910e-02" style="stop-color:#F8E889"/>
			<stop offset="0.2545" style="stop-color:#B2813C"/>
			<stop offset="0.2661" style="stop-color:#B5843E"/>
			<stop offset="0.405" style="stop-color:#D0A153"/>
			<stop offset="0.5251" style="stop-color:#E0B35F"/>
			<stop offset="0.6121" style="stop-color:#E6B964"/>
			<stop offset="0.6532" style="stop-color:#DDB05E"/>
			<stop offset="0.7215" style="stop-color:#C6964F"/>
			<stop offset="0.8081" style="stop-color:#A16D37"/>
			<stop offset="0.8667" style="stop-color:#844D24"/>
			<stop offset="1" style="stop-color:#281809"/>
		</linearGradient><linearGradient id="SVGID_81_" gradientUnits="userSpaceOnUse" x1="76.975" y1="313.7579" x2="68.957" y2="311.8042">
				<stop offset="1.212120e-02" style="stop-color:#281809"/>
				<stop offset="0.2606" style="stop-color:#8E5B22"/>
				<stop offset="0.2882" style="stop-color:#9A682B"/>
				<stop offset="0.3389" style="stop-color:#BA8A43"/>
				<stop offset="0.4" style="stop-color:#E8BA65"/>
				<stop offset="0.6061" style="stop-color:#844D24"/>
				<stop offset="1" style="stop-color:#281809"/>
			</linearGradient><linearGradient id="SVGID_82_" gradientUnits="userSpaceOnUse" x1="393.9116" y1="313.048" x2="391.5369" y2="312.4694">
				<stop offset="1.212120e-02" style="stop-color:#281809"/>
				<stop offset="0.2606" style="stop-color:#8E5B22"/>
				<stop offset="0.2882" style="stop-color:#9A682B"/>
				<stop offset="0.3389" style="stop-color:#BA8A43"/>
				<stop offset="0.4" style="stop-color:#E8BA65"/>
				<stop offset="0.6061" style="stop-color:#844D24"/>
				<stop offset="1" style="stop-color:#281809"/>
			</linearGradient><linearGradient id="SVGID_83_" gradientUnits="userSpaceOnUse" x1="122.9231" y1="340.015" x2="60.8508" y2="324.8903">
				<stop offset="1.212120e-02" style="stop-color:#281809"/>
				<stop offset="0.2606" style="stop-color:#8E5B22"/>
				<stop offset="0.2882" style="stop-color:#9A682B"/>
				<stop offset="0.3389" style="stop-color:#BA8A43"/>
				<stop offset="0.4" style="stop-color:#E8BA65"/>
				<stop offset="0.6061" style="stop-color:#844D24"/>
				<stop offset="1" style="stop-color:#281809"/>
			</linearGradient><linearGradient id="SVGID_84_" gradientUnits="userSpaceOnUse" x1="398.5572" y1="334.6282" x2="342.8539" y2="321.0554">
				<stop offset="1.212120e-02" style="stop-color:#281809"/>
				<stop offset="0.2606" style="stop-color:#8E5B22"/>
				<stop offset="0.2882" style="stop-color:#9A682B"/>
				<stop offset="0.3389" style="stop-color:#BA8A43"/>
				<stop offset="0.4" style="stop-color:#E8BA65"/>
				<stop offset="0.6061" style="stop-color:#844D24"/>
				<stop offset="1" style="stop-color:#281809"/>
			</linearGradient><linearGradient id="SVGID_85_" gradientUnits="userSpaceOnUse" x1="233.9652" y1="341.7582" x2="325.395" y2="323.1563">
				<stop offset="5.454550e-02" style="stop-color:#E6B964"/>
				<stop offset="0.4848" style="stop-color:#F8E889"/>
				<stop offset="0.5325" style="stop-color:#F3E285"/>
				<stop offset="0.5964" style="stop-color:#E7D178"/>
				<stop offset="0.6695" style="stop-color:#D2B564"/>
				<stop offset="0.7494" style="stop-color:#B48E47"/>
				<stop offset="0.834" style="stop-color:#8F5C23"/>
				<stop offset="0.8364" style="stop-color:#8E5B22"/>
				<stop offset="0.8531" style="stop-color:#9A682B"/>
				<stop offset="0.884" style="stop-color:#BA8A43"/>
				<stop offset="0.9212" style="stop-color:#E8BA65"/>
				<stop offset="0.9818" style="stop-color:#844D24"/>
				<stop offset="1" style="stop-color:#281809"/>
			</linearGradient><linearGradient id="SVGID_86_" gradientUnits="userSpaceOnUse" x1="140.2571" y1="324.3857" x2="323.3206" y2="353.1733">
				<stop offset="0" style="stop-color:#281809"/>
				<stop offset="2.459394e-04" style="stop-color:#2E1B0B"/>
				<stop offset="1.532047e-03" style="stop-color:#492B13"/>
				<stop offset="3.010038e-03" style="stop-color:#5F3719"/>
				<stop offset="4.736487e-03" style="stop-color:#70411E"/>
				<stop offset="6.871804e-03" style="stop-color:#7B4821"/>
				<stop offset="9.866627e-03" style="stop-color:#824C23"/>
				<stop offset="1.818180e-02" style="stop-color:#844D24"/>
				<stop offset="3.636360e-02" style="stop-color:#F7E68A"/>
				<stop offset="7.272730e-02" style="stop-color:#8E5B22"/>
				<stop offset="8.231267e-02" style="stop-color:#9A682B"/>
				<stop offset="9.997012e-02" style="stop-color:#BA8A43"/>
				<stop offset="0.1212" style="stop-color:#E8BA65"/>
				<stop offset="0.1697" style="stop-color:#F8E889"/>
				<stop offset="0.2303" style="stop-color:#B2813C"/>
				<stop offset="0.3333" style="stop-color:#E6B964"/>
			</linearGradient><linearGradient id="SVGID_87_" gradientUnits="userSpaceOnUse" x1="136.9579" y1="348.6014" x2="328.3632" y2="348.6014">
			<stop offset="1.212120e-02" style="stop-color:#281809"/>
			<stop offset="0.2606" style="stop-color:#8E5B22"/>
			<stop offset="0.2882" style="stop-color:#9A682B"/>
			<stop offset="0.3389" style="stop-color:#BA8A43"/>
			<stop offset="0.4" style="stop-color:#E8BA65"/>
			<stop offset="0.6061" style="stop-color:#844D24"/>
			<stop offset="1" style="stop-color:#281809"/>
		</linearGradient><g transform="matrix(1, 0, 0, 1, -36.0140686035156, 39.01523971557617)"><path class="st81" d="M164.2,348.2c-0.2,4.8,2.3,8.6-6.8,10.3c-9.1,1.7-50.1-3.6-44.9-16.9c5.2-13.4,14.7-19.3,14.7-19.3&#10;&#9;&#9;&#9;s17,4.3,24,3.8c7-0.5,13.1,9.1,13.1,9.1L164.2,348.2z" style="fill: url('#SVGID_71_');" transform="matrix(1, 0, 0, 1, 3.637978807091713e-12, 9.094947017729282e-13)"/><path class="st82" d="M301.4,348.2c0.2,4.8-2.3,8.6,6.8,10.3c9.1,1.7,50.1-3.6,44.9-16.9c-5.2-13.4-14.7-19.3-14.7-19.3&#10;&#9;&#9;&#9;s-17,4.3-24,3.8c-7-0.5-13.1,9.1-13.1,9.1L301.4,348.2z" style="fill: url('#SVGID_72_');" transform="matrix(1, 0, 0, 1, 3.637978807091713e-12, 9.094947017729282e-13)"/><path class="st83" d="M308.2,357.6c-5.7-1.1-6.8-3-6.9-5.4c-0.1,2.9,0.5,5.2,6.9,6.3c8.6,1.6,46.4-3.1,45.3-15.1&#10;&#9;&#9;&#9;&#9;C352.6,354.7,316.6,359.1,308.2,357.6z" style="fill: url('#SVGID_73_');" transform="matrix(1, 0, 0, 1, 5.5138116294983774e-12, 1.3642420526593924e-12)"/><path class="st84" d="M157.4,357.6c-8.4,1.6-44.5-2.9-45.3-14.2c-1.1,12,36.7,16.7,45.3,15.1c6.4-1.2,7-3.4,6.9-6.3&#10;&#9;&#9;&#9;&#9;C164.2,354.6,163.1,356.5,157.4,357.6z" style="fill: url('#SVGID_74_');" transform="matrix(1, 0, 0, 1, 5.5138116294983774e-12, 1.3642420526593924e-12)"/><path class="st85" d="M139.2,333.9c-2.3,7.4-5.2,14.3,2.3,14.8c7.5,0.5,23.3-2.9,22.4,4.3c-0.9,7.2,2.9-9.1,2.5-12.6&#10;&#9;&#9;&#9;C166,336.8,139.2,333.9,139.2,333.9z" style="fill: url('#SVGID_75_');" transform="matrix(1, 0, 0, 1, 3.637978807091713e-12, 9.094947017729282e-13)"/><path class="st86" d="M112,343.9c0-3.3,6.2-4.3,8.9-4.3c2.7,0,6.5-6.8,2-9.4c-4.5-2.5-7-0.6-7-0.6L112,343.9z" style="fill: url('#SVGID_76_');" transform="matrix(1, 0, 0, 1, 3.637978807091713e-12, 9.094947017729282e-13)"/><path class="st87" d="M124.4,302.4c4.7,1.7,7.4,3.8,5.4,12.6c-2,8.7-4.8,20.2-4.8,20.2s0.5-8.4-11.3-1.8&#10;&#9;&#9;&#9;c-11.8,6.7-46.9,13.5-50.8-13.2c6.8,1.1,12.8-0.2,12.8-0.2s-10.4-12.6-1.7-24.5c2.1,15.6,13.6,15.6,15.7,15.6&#10;&#9;&#9;&#9;C100,311.5,114.4,298.9,124.4,302.4z" style="fill: url('#SVGID_77_');" transform="matrix(1, 0, 0, 1, 3.637978807091713e-12, 9.094947017729282e-13)"/><path class="st88" d="M326.3,333.9c2.3,7.4,5.2,14.3-2.3,14.8c-7.5,0.5-23.3-2.9-22.4,4.3c0.9,7.2-2.9-9.1-2.5-12.6&#10;&#9;&#9;&#9;C299.6,336.8,326.3,333.9,326.3,333.9z" style="fill: url('#SVGID_78_');" transform="matrix(1, 0, 0, 1, 3.637978807091713e-12, 9.094947017729282e-13)"/><path class="st89" d="M353.6,343.9c0-3.3-6.2-4.3-8.9-4.3c-2.7,0-6.5-6.8-2-9.4c4.5-2.5,7-0.6,7-0.6L353.6,343.9z" style="fill: url('#SVGID_79_');" transform="matrix(1, 0, 0, 1, 3.637978807091713e-12, 9.094947017729282e-13)"/><path class="st90" d="M341.2,302.4c-4.7,1.7-7.4,3.8-5.4,12.6c2,8.7,4.8,20.2,4.8,20.2s-0.5-8.4,11.3-1.8&#10;&#9;&#9;&#9;c11.8,6.7,46.9,13.5,50.8-13.2c-6.8,1.1-12.8-0.2-12.8-0.2s10.4-12.6,1.7-24.5c-2.1,15.6-13.6,15.6-15.7,15.6&#10;&#9;&#9;&#9;C365.5,311.5,351.2,298.9,341.2,302.4z" style="fill: url('#SVGID_80_');" transform="matrix(1, 0, 0, 1, 3.637978807091713e-12, 9.094947017729282e-13)"/><path class="st91" d="M75.7,319.5c0,0-5-6-5.2-13.7c-0.2,6.4,3.2,11.8,4.6,13.8C75.5,319.6,75.7,319.5,75.7,319.5z" style="fill: url('#SVGID_81_');" transform="matrix(1, 0, 0, 1, 5.5138116294983774e-12, 1.3642420526593924e-12)"/><path class="st92" d="M390.5,319.6c1.4-2,4.7-7.4,4.6-13.8c-0.2,7.7-5.2,13.7-5.2,13.7S390.1,319.6,390.5,319.6z" style="fill: url('#SVGID_82_');" transform="matrix(1, 0, 0, 1, 5.5138116294983774e-12, 1.3642420526593924e-12)"/><path class="st93" d="M125,334.6c0,0,0.5-8.4-11.3-1.7c-11.6,6.6-46,13.3-50.6-12.3c-0.1,0-0.1,0-0.2,0&#10;&#9;&#9;&#9;&#9;c3.9,26.7,39,19.9,50.8,13.2c11.8-6.7,11.3,1.7,11.3,1.7" style="fill: url('#SVGID_83_');" transform="matrix(1, 0, 0, 1, 5.5138116294983774e-12, 1.3642420526593924e-12)"/><path class="st94" d="M340.6,335.5c0,0-0.5-8.4,11.3-1.7c11.8,6.7,46.9,13.5,50.8-13.2c-0.1,0-0.1,0-0.2,0&#10;&#9;&#9;&#9;&#9;c-4.6,25.6-39,18.9-50.6,12.3c-11.8-6.7-11.3,1.7-11.3,1.7" style="fill: url('#SVGID_84_');" transform="matrix(1, 0, 0, 1, 5.5138116294983774e-12, 1.3642420526593924e-12)"/><path class="st95" d="M324,315.6c-2.7-12.4-11.3-13.1-27.4-7.2c-13.7,5.1-36.4,10.8-63,10.9v39.4c10.7,0.1,20.7-0.8,28.8-2.4&#10;&#9;&#9;&#9;&#9;c1.6-0.3,3.1-0.7,4.6-1c0.5-0.1,1.1-0.3,1.6-0.4c0.7-0.2,1.3-0.3,1.8-0.4c15.9-4.1,28-9.6,38.6-13.1c18.2-6,19.6,2.9,19.7,3.5&#10;&#9;&#9;&#9;&#9;C328.7,344.2,326.7,327.8,324,315.6z" style="fill: url('#SVGID_85_');" transform="matrix(1, 0, 0, 1, 5.5138116294983774e-12, 1.3642420526593924e-12)"/><path class="st96" d="M232.8,319.4c-27,0-50-5.8-63.8-10.9c-16.1-6-24.7-5.2-27.4,7.2c-2.7,12.1-4.7,28.6-4.8,29.3&#10;&#9;&#9;&#9;&#9;c0.1-0.6,1.5-9.5,19.7-3.5c10.5,3.5,22.3,8.8,37.8,12.9c12.7,3,26.5,4.4,39.3,4.5v-39.4C233.3,319.4,233,319.4,232.8,319.4z" style="fill: url('#SVGID_86_');" transform="matrix(1, 0, 0, 1, 5.5138116294983774e-12, 1.3642420526593924e-12)"/><path class="st97" d="M309.1,340.5c-10.7,3.5-22.7,9-38.6,13.1c-0.5,0.1-1.1,0.2-1.8,0.4c-0.5,0.1-1.1,0.3-1.6,0.4&#10;&#9;&#9;&#9;c-1.5,0.4-3,0.7-4.6,1c-8.1,1.6-18.2,2.4-28.8,2.4c-12.8-0.1-26.6-1.4-39.3-4.5c-15.5-4.1-27.3-9.5-37.8-12.9&#10;&#9;&#9;&#9;c-15.2-5-18.7,0.4-19.5,2.7c-0.1,1-0.2,1.7-0.2,1.8c0.1-0.6,1.5-9.5,19.7-3.5c10.5,3.5,22.3,8.8,37.8,12.9&#10;&#9;&#9;&#9;c12.7,3,26.5,4.4,39.3,4.5c10.7,0.1,20.7-0.8,28.8-2.4c1.6-0.3,3.1-0.7,4.6-1c0.5-0.1,1.1-0.3,1.6-0.4c0.7-0.2,1.3-0.3,1.8-0.4&#10;&#9;&#9;&#9;c15.9-4.1,28-9.6,38.6-13.1c18.2-6,19.6,2.9,19.7,3.5c0-0.1-0.1-0.8-0.2-1.8C327.8,340.8,324.2,335.5,309.1,340.5z" style="fill: url('#SVGID_87_');" transform="matrix(1, 0, 0, 1, 3.637978807091713e-12, 9.094947017729282e-13)"/></g></svg>